<svg xmlns="http://www.w3.org/2000/svg" viewBox="0 0 691.32 691.54"><title>logo vecto</title><g id="Calque_2" data-name="Calque 2"><g id="Calque_1-2" data-name="Calque 1"><path d="M641.62,472a175.5,175.5,0,0,0,1.56-243.12c0-.61,0-1.23,0-1.84,0-96.2-77.65-174.58-173.57-175.8a175.53,175.53,0,0,0-248.83.87C124.77,53.21,47,131.66,47,228c0,.74,0,1.47,0,2.2a175.5,175.5,0,0,0,5.54,244.72C56,568,132.23,642.83,225.91,644a175.49,175.49,0,0,0,243.17-2.92C562.34,639.48,638.12,564.85,641.62,472ZM521.77,513.36a175,175,0,0,0-41.44-110.93,175.22,175.22,0,0,0,107-47,163.19,163.19,0,0,1,42.4,109.86c0,.54,0,1.09,0,1.63A163.28,163.28,0,0,1,521.77,513.36Zm-57.7,115.78a163.15,163.15,0,0,1-106.95-41.45A175.23,175.23,0,0,0,403.25,484.9,175,175,0,0,0,509.5,525.38,163.29,163.29,0,0,1,464.07,629.14ZM182.43,525.36a175.07,175.07,0,0,0,108.51-42.88A175.32,175.32,0,0,0,340,587.9,163.22,163.22,0,0,1,230.72,632,163.36,163.36,0,0,1,182.43,525.36Zm-118-55.71c0-.47,0-.93,0-1.4a163.16,163.16,0,0,1,41.61-109,175.12,175.12,0,0,0,104.81,44.1,175,175,0,0,0-40.65,110A163.21,163.21,0,0,1,64.4,469.65Zm105.72-283.7a175.12,175.12,0,0,0,44.49,107,175.29,175.29,0,0,0-109,49.4A163.29,163.29,0,0,1,59.11,234.82,163.34,163.34,0,0,1,170.13,185.94ZM225.91,64.16A163.26,163.26,0,0,1,336.34,110,175.12,175.12,0,0,0,291.8,217.62a175.08,175.08,0,0,0-109.95-43.67A163.21,163.21,0,0,1,225.91,64.16Zm238.69-.88a163.24,163.24,0,0,1,44.87,110.67,175.11,175.11,0,0,0-111.1,44.69A175.16,175.16,0,0,0,353,109.91,163.27,163.27,0,0,1,464.6,63.28ZM631.06,233.66a163.21,163.21,0,0,1-43.6,104.73A175.27,175.27,0,0,0,479.27,290a175.06,175.06,0,0,0,41.93-104.06A163.32,163.32,0,0,1,631.06,233.66Zm-339.37.29a174.64,174.64,0,0,0,23.87,81.74,174.71,174.71,0,0,0-84.85-23.24A163.37,163.37,0,0,1,182.15,186,163.33,163.33,0,0,1,291.69,233.94Zm217.48-48A163.29,163.29,0,0,1,463.5,289.53a174.71,174.71,0,0,0-87.63,24.85,174.62,174.62,0,0,0,22.6-79.23A163.35,163.35,0,0,1,509.17,186ZM449.69,302.3a163.1,163.1,0,0,1-87.79,36.55A163.1,163.1,0,0,1,449.69,302.3Zm-96.44,24.63A163,163,0,0,1,385,250.68,163,163,0,0,1,353.25,326.93ZM305,249a163.06,163.06,0,0,1,33.16,78.67A163.06,163.06,0,0,1,305,249Zm23.45,89.73a163,163,0,0,1-83.06-33.45A163,163,0,0,1,328.47,338.76ZM225.9,304.44a175.73,175.73,0,0,0,74.75,41.37,175.9,175.9,0,0,0-79.28,46,163.14,163.14,0,0,1-107.06-41.15A163.26,163.26,0,0,1,225.9,304.44Zm102.86,48.34A163.15,163.15,0,0,1,240,390.88,163.15,163.15,0,0,1,328.76,352.78Zm-102.27,51a174.69,174.69,0,0,0,86.36-24.83,174.74,174.74,0,0,0-22.76,86.43c0,.53,0,1.06,0,1.59a163.28,163.28,0,0,1-108,46.44A163.22,163.22,0,0,1,226.49,403.73Zm112.73-42.14a163.06,163.06,0,0,1-36.69,91.81A163.06,163.06,0,0,1,339.22,361.59Zm40.81,18a174.7,174.7,0,0,0,84.59,23.23,163.25,163.25,0,0,1,45.14,110.51A163.21,163.21,0,0,1,404,469.61c0-.46,0-.91,0-1.37A174.75,174.75,0,0,0,380,379.64Zm11.61,77.16a163.14,163.14,0,0,1-39.57-95.69A163.14,163.14,0,0,1,391.64,456.8Zm-29.3-104.1A163.12,163.12,0,0,1,451,390.09,163.12,163.12,0,0,1,362.34,352.7Zm107.32,38.18A175.86,175.86,0,0,0,391,345.73a175.84,175.84,0,0,0,77.49-44.2A163.26,163.26,0,0,1,579,346.88,163.21,163.21,0,0,1,469.66,390.87ZM386.62,228c0,.76,0,1.51,0,2.26a175.74,175.74,0,0,0-40.93,73.88A175.78,175.78,0,0,0,303.57,229c0-.63,0-1.26,0-1.89a163.15,163.15,0,0,1,41.15-108.45A163.17,163.17,0,0,1,386.62,228Zm-84.38,243.8a175.82,175.82,0,0,0,43.42-76.52,175.91,175.91,0,0,0,46.25,79.38A163.21,163.21,0,0,1,348.45,579.4,163.28,163.28,0,0,1,302.24,471.75ZM679.32,349.66a163.08,163.08,0,0,1-37.91,104.69A175.17,175.17,0,0,0,595.85,347a175.27,175.27,0,0,0,46.34-101.06A163.07,163.07,0,0,1,679.32,349.66ZM630.9,217.11a175.08,175.08,0,0,0-109.43-43.17A175,175,0,0,0,481.1,63.82C561.76,70.54,626,136,630.9,217.11ZM452.66,51.86a175.3,175.3,0,0,0-108,49.44,175.28,175.28,0,0,0-107-48.55,163.51,163.51,0,0,1,215-.89ZM209.54,64.66a175,175,0,0,0-39.69,109.29,175.1,175.1,0,0,0-110.6,44.21C64.08,136.76,128.6,71.16,209.54,64.66ZM12,349.66A163,163,0,0,1,48,247.29,175.36,175.36,0,0,0,97.31,351,175.13,175.13,0,0,0,52.72,457.63,163.14,163.14,0,0,1,12,349.66ZM65.4,486.37a175,175,0,0,0,105,39,175.09,175.09,0,0,0,43.28,106C136.13,624.57,73.92,563.45,65.4,486.37Zm178.06,157a175.25,175.25,0,0,0,105.21-47.19A175.16,175.16,0,0,0,451.87,640.6a163.48,163.48,0,0,1-208.42,2.81Zm237.3-14.92a175,175,0,0,0,40.77-103.1A175,175,0,0,0,628.68,484.1C619.89,560.78,558,621.52,480.75,628.48Z"/></g></g></svg>